<svg xmlns="http://www.w3.org/2000/svg" width="960" height="540" viewBox="0 0 960 540" role="img" aria-label="GitHub Workbench theme preview">
  <rect width="480" height="540" fill="#f6f8fa"/>
  <rect x="480" width="480" height="540" fill="#0d1117"/>
  <rect x="32" y="36" width="416" height="468" rx="14" fill="#ffffff" stroke="#d0d7de"/>
  <rect x="52" y="58" width="376" height="34" rx="8" fill="#ffffff" stroke="#d0d7de"/>
  <circle cx="74" cy="75" r="5" fill="#0969da"/>
  <text x="92" y="80" font-family="Inter, system-ui, sans-serif" font-size="12" fill="#57606a">Light</text>
  <text x="52" y="132" font-family="Inter, system-ui, sans-serif" font-size="28" fill="#1f2328">GitHub Workbench</text>
  <rect x="52" y="150" width="150" height="3" rx="1.5" fill="#0969da"/>
  <text x="52" y="184" font-family="Inter, system-ui, sans-serif" font-size="14" fill="#1f2328">Flat developer-docs rhythm, square tables, precise code and fi</text>
  <rect x="52" y="214" width="376" height="82" rx="10" fill="#eff1f3" stroke="#d0d7de"/>
  <text x="70" y="242" font-family="SFMono-Regular, Consolas, monospace" font-size="13" fill="#0969da">const theme = "github-workbench"</text>
  <text x="70" y="266" font-family="SFMono-Regular, Consolas, monospace" font-size="13" fill="#57606a">// developer-docs square rhythm</text>
  <rect x="52" y="320" width="180" height="104" rx="10" fill="#ffffff" stroke="#d0d7de"/>
  <rect x="52" y="320" width="5" height="104" rx="2" fill="#0969da"/>
  <text x="72" y="350" font-family="Inter, system-ui, sans-serif" font-size="13" fill="#1f2328">Callout</text>
  <text x="72" y="374" font-family="Inter, system-ui, sans-serif" font-size="12" fill="#57606a">GitHub-like tables</text>
  <rect x="252" y="320" width="176" height="104" rx="8" fill="#f6f8fa" stroke="#d0d7de"/>
  <line x1="252" y1="354" x2="428" y2="354" stroke="#d0d7de"/>
  <line x1="252" y1="388" x2="428" y2="388" stroke="#d0d7de"/>
  <text x="270" y="343" font-family="Inter, system-ui, sans-serif" font-size="12" fill="#1f2328">Rows</text>
  <text x="352" y="343" font-family="Inter, system-ui, sans-serif" font-size="12" fill="#1f2328">Cols</text>
  <text x="270" y="377" font-family="Inter, system-ui, sans-serif" font-size="12" fill="#57606a">26</text>
  <text x="352" y="377" font-family="Inter, system-ui, sans-serif" font-size="12" fill="#57606a">10</text>
  <rect x="52" y="452" width="72" height="22" rx="11" fill="#ddf4ff"/>
  <text x="68" y="467" font-family="Inter, system-ui, sans-serif" font-size="11" fill="#0969da">#theme</text>
  <rect x="512" y="36" width="416" height="468" rx="14" fill="#161b22" stroke="#30363d"/>
  <rect x="532" y="58" width="376" height="34" rx="8" fill="#0d1117" stroke="#30363d"/>
  <circle cx="554" cy="75" r="5" fill="#58a6ff"/>
  <text x="572" y="80" font-family="Inter, system-ui, sans-serif" font-size="12" fill="#8b949e">Dark</text>
  <text x="532" y="132" font-family="Inter, system-ui, sans-serif" font-size="28" fill="#e6edf3">GitHub Workbench</text>
  <rect x="532" y="150" width="150" height="3" rx="1.5" fill="#58a6ff"/>
  <text x="532" y="184" font-family="Inter, system-ui, sans-serif" font-size="14" fill="#e6edf3">Flat developer-docs rhythm, square tables, precise code and fi</text>
  <rect x="532" y="214" width="376" height="82" rx="10" fill="#21262d" stroke="#30363d"/>
  <text x="550" y="242" font-family="SFMono-Regular, Consolas, monospace" font-size="13" fill="#58a6ff">const theme = "github-workbench"</text>
  <text x="550" y="266" font-family="SFMono-Regular, Consolas, monospace" font-size="13" fill="#8b949e">// developer-docs square rhythm</text>
  <rect x="532" y="320" width="180" height="104" rx="10" fill="#0d1117" stroke="#30363d"/>
  <rect x="532" y="320" width="5" height="104" rx="2" fill="#58a6ff"/>
  <text x="552" y="350" font-family="Inter, system-ui, sans-serif" font-size="13" fill="#e6edf3">Callout</text>
  <text x="552" y="374" font-family="Inter, system-ui, sans-serif" font-size="12" fill="#8b949e">GitHub-like tables</text>
  <rect x="732" y="320" width="176" height="104" rx="8" fill="#161b22" stroke="#30363d"/>
  <line x1="732" y1="354" x2="908" y2="354" stroke="#30363d"/>
  <line x1="732" y1="388" x2="908" y2="388" stroke="#30363d"/>
  <text x="750" y="343" font-family="Inter, system-ui, sans-serif" font-size="12" fill="#e6edf3">Rows</text>
  <text x="832" y="343" font-family="Inter, system-ui, sans-serif" font-size="12" fill="#e6edf3">Cols</text>
  <text x="750" y="377" font-family="Inter, system-ui, sans-serif" font-size="12" fill="#8b949e">26</text>
  <text x="832" y="377" font-family="Inter, system-ui, sans-serif" font-size="12" fill="#8b949e">10</text>
  <rect x="532" y="452" width="72" height="22" rx="11" fill="#102a43"/>
  <text x="548" y="467" font-family="Inter, system-ui, sans-serif" font-size="11" fill="#58a6ff">#theme</text>
</svg>
